<svg xmlns="http://www.w3.org/2000/svg" width="1080" height="1350" viewBox="0 0 1080 1350" font-family="Helvetica, Arial, sans-serif">
<defs>
<radialGradient id="bg" cx="50%" cy="30%" r="85%">
 <stop offset="0%" stop-color="#161a20"/><stop offset="52%" stop-color="#0d0f13"/><stop offset="100%" stop-color="#060708"/>
</radialGradient>
<linearGradient id="road" x1="0" y1="0" x2="0.4" y2="1">
 <stop offset="0%" stop-color="#f0d09a"/><stop offset="50%" stop-color="#cfa06a"/><stop offset="100%" stop-color="#a97c46"/>
</linearGradient>
<radialGradient id="alp" cx="50%" cy="42%" r="60%">
 <stop offset="0%" stop-color="#2b313a" stop-opacity="0.9"/><stop offset="100%" stop-color="#2b313a" stop-opacity="0"/>
</radialGradient>
<radialGradient id="vig" cx="50%" cy="46%" r="75%">
 <stop offset="60%" stop-color="#000000" stop-opacity="0"/><stop offset="100%" stop-color="#000000" stop-opacity="0.55"/>
</radialGradient>
<filter id="glow" x="-40%" y="-40%" width="180%" height="180%">
 <feGaussianBlur stdDeviation="7" result="b"/><feMerge><feMergeNode in="b"/><feMergeNode in="SourceGraphic"/></feMerge>
</filter>
</defs>
<rect width="1080" height="1350" fill="url(#bg)"/>
<g>
<ellipse cx="731" cy="921" rx="110" ry="68" fill="url(#alp)"/>
<path d="M622 935 Q731 853 841 935" stroke="#3d444e" stroke-width="1.3" fill="none" opacity="0.45"/>
<ellipse cx="796" cy="921" rx="108" ry="67" fill="url(#alp)"/>
<path d="M688 934 Q796 854 904 934" stroke="#3d444e" stroke-width="1.3" fill="none" opacity="0.45"/>
<ellipse cx="594" cy="895" rx="108" ry="67" fill="url(#alp)"/>
<path d="M486 909 Q594 829 701 909" stroke="#3d444e" stroke-width="1.3" fill="none" opacity="0.45"/>
<ellipse cx="755" cy="810" rx="107" ry="66" fill="url(#alp)"/>
<path d="M648 824 Q755 744 862 824" stroke="#3d444e" stroke-width="1.3" fill="none" opacity="0.45"/>
<ellipse cx="739" cy="857" rx="105" ry="65" fill="url(#alp)"/>
<path d="M635 870 Q739 793 844 870" stroke="#3d444e" stroke-width="1.3" fill="none" opacity="0.45"/>
<ellipse cx="687" cy="882" rx="101" ry="63" fill="url(#alp)"/>
<path d="M586 894 Q687 819 788 894" stroke="#3d444e" stroke-width="1.3" fill="none" opacity="0.45"/>
<ellipse cx="807" cy="853" rx="101" ry="63" fill="url(#alp)"/>
<path d="M707 865 Q807 790 908 865" stroke="#3d444e" stroke-width="1.3" fill="none" opacity="0.45"/>
<ellipse cx="818" cy="935" rx="96" ry="59" fill="url(#alp)"/>
<path d="M722 947 Q818 876 914 947" stroke="#3d444e" stroke-width="1.3" fill="none" opacity="0.45"/>
<ellipse cx="762" cy="893" rx="95" ry="59" fill="url(#alp)"/>
<path d="M667 905 Q762 835 857 905" stroke="#3d444e" stroke-width="1.3" fill="none" opacity="0.45"/>
<ellipse cx="775" cy="886" rx="93" ry="58" fill="url(#alp)"/>
<path d="M682 898 Q775 828 868 898" stroke="#3d444e" stroke-width="1.3" fill="none" opacity="0.45"/>
<ellipse cx="460" cy="883" rx="93" ry="58" fill="url(#alp)"/>
<path d="M367 894 Q460 825 553 894" stroke="#3d444e" stroke-width="1.3" fill="none" opacity="0.45"/>
<ellipse cx="850" cy="897" rx="92" ry="57" fill="url(#alp)"/>
<path d="M757 908 Q850 839 942 908" stroke="#3d444e" stroke-width="1.3" fill="none" opacity="0.45"/>
<ellipse cx="752" cy="945" rx="92" ry="57" fill="url(#alp)"/>
<path d="M660 956 Q752 888 844 956" stroke="#3d444e" stroke-width="1.3" fill="none" opacity="0.45"/>
<ellipse cx="772" cy="917" rx="86" ry="53" fill="url(#alp)"/>
<path d="M685 928 Q772 863 858 928" stroke="#3d444e" stroke-width="1.3" fill="none" opacity="0.45"/>
<ellipse cx="556" cy="1011" rx="83" ry="51" fill="url(#alp)"/>
<path d="M473 1021 Q556 959 639 1021" stroke="#3d444e" stroke-width="1.3" fill="none" opacity="0.45"/>
<ellipse cx="618" cy="785" rx="83" ry="51" fill="url(#alp)"/>
<path d="M536 796 Q618 734 701 796" stroke="#3d444e" stroke-width="1.3" fill="none" opacity="0.45"/>
<ellipse cx="574" cy="953" rx="80" ry="50" fill="url(#alp)"/>
<path d="M494 963 Q574 904 654 963" stroke="#3d444e" stroke-width="1.3" fill="none" opacity="0.45"/>
<ellipse cx="460" cy="915" rx="78" ry="48" fill="url(#alp)"/>
<path d="M382 924 Q460 866 538 924" stroke="#3d444e" stroke-width="1.3" fill="none" opacity="0.45"/>
<ellipse cx="675" cy="859" rx="77" ry="47" fill="url(#alp)"/>
<path d="M598 869 Q675 812 752 869" stroke="#3d444e" stroke-width="1.3" fill="none" opacity="0.45"/>
<ellipse cx="537" cy="880" rx="76" ry="47" fill="url(#alp)"/>
<path d="M461 889 Q537 833 613 889" stroke="#3d444e" stroke-width="1.3" fill="none" opacity="0.45"/>
<ellipse cx="740" cy="841" rx="75" ry="47" fill="url(#alp)"/>
<path d="M664 850 Q740 794 815 850" stroke="#3d444e" stroke-width="1.3" fill="none" opacity="0.45"/>
<ellipse cx="738" cy="952" rx="75" ry="46" fill="url(#alp)"/>
<path d="M663 961 Q738 906 812 961" stroke="#3d444e" stroke-width="1.3" fill="none" opacity="0.45"/>
<ellipse cx="690" cy="748" rx="71" ry="44" fill="url(#alp)"/>
<path d="M619 757 Q690 704 761 757" stroke="#3d444e" stroke-width="1.3" fill="none" opacity="0.45"/>
<ellipse cx="714" cy="940" rx="69" ry="43" fill="url(#alp)"/>
<path d="M645 948 Q714 897 783 948" stroke="#3d444e" stroke-width="1.3" fill="none" opacity="0.45"/>
<ellipse cx="741" cy="888" rx="67" ry="42" fill="url(#alp)"/>
<path d="M673 896 Q741 846 808 896" stroke="#3d444e" stroke-width="1.3" fill="none" opacity="0.45"/>
<ellipse cx="558" cy="831" rx="64" ry="39" fill="url(#alp)"/>
<path d="M494 839 Q558 792 621 839" stroke="#3d444e" stroke-width="1.3" fill="none" opacity="0.45"/>
<ellipse cx="666" cy="925" rx="63" ry="39" fill="url(#alp)"/>
<path d="M603 933 Q666 886 729 933" stroke="#3d444e" stroke-width="1.3" fill="none" opacity="0.45"/>
<ellipse cx="798" cy="869" rx="63" ry="39" fill="url(#alp)"/>
<path d="M735 877 Q798 830 861 877" stroke="#3d444e" stroke-width="1.3" fill="none" opacity="0.45"/>
<ellipse cx="722" cy="946" rx="63" ry="39" fill="url(#alp)"/>
<path d="M660 954 Q722 907 785 954" stroke="#3d444e" stroke-width="1.3" fill="none" opacity="0.45"/>
<ellipse cx="796" cy="860" rx="61" ry="38" fill="url(#alp)"/>
<path d="M734 867 Q796 822 857 867" stroke="#3d444e" stroke-width="1.3" fill="none" opacity="0.45"/>
<ellipse cx="832" cy="883" rx="59" ry="37" fill="url(#alp)"/>
<path d="M773 891 Q832 847 891 891" stroke="#3d444e" stroke-width="1.3" fill="none" opacity="0.45"/>
<ellipse cx="608" cy="790" rx="59" ry="36" fill="url(#alp)"/>
<path d="M550 797 Q608 754 667 797" stroke="#3d444e" stroke-width="1.3" fill="none" opacity="0.45"/>
<ellipse cx="775" cy="897" rx="44" ry="27" fill="url(#alp)"/>
<path d="M731 902 Q775 870 819 902" stroke="#3d444e" stroke-width="1.3" fill="none" opacity="0.45"/>
<ellipse cx="466" cy="879" rx="43" ry="27" fill="url(#alp)"/>
<path d="M423 884 Q466 852 509 884" stroke="#3d444e" stroke-width="1.3" fill="none" opacity="0.45"/>
<ellipse cx="465" cy="872" rx="42" ry="26" fill="url(#alp)"/>
<path d="M423 878 Q465 846 507 878" stroke="#3d444e" stroke-width="1.3" fill="none" opacity="0.45"/>
<ellipse cx="809" cy="856" rx="41" ry="25" fill="url(#alp)"/>
<path d="M768 861 Q809 831 849 861" stroke="#3d444e" stroke-width="1.3" fill="none" opacity="0.45"/>
</g>
<g stroke="#171b21" stroke-width="1" opacity="0.6">
<line x1="74" y1="250" x2="74" y2="1016"/>
<line x1="164" y1="250" x2="164" y2="1016"/>
<line x1="254" y1="250" x2="254" y2="1016"/>
<line x1="344" y1="250" x2="344" y2="1016"/>
<line x1="434" y1="250" x2="434" y2="1016"/>
<line x1="524" y1="250" x2="524" y2="1016"/>
<line x1="614" y1="250" x2="614" y2="1016"/>
<line x1="704" y1="250" x2="704" y2="1016"/>
<line x1="794" y1="250" x2="794" y2="1016"/>
<line x1="884" y1="250" x2="884" y2="1016"/>
<line x1="974" y1="250" x2="974" y2="1016"/>
<line x1="74" y1="250" x2="1006" y2="250"/>
<line x1="74" y1="340" x2="1006" y2="340"/>
<line x1="74" y1="430" x2="1006" y2="430"/>
<line x1="74" y1="520" x2="1006" y2="520"/>
<line x1="74" y1="610" x2="1006" y2="610"/>
<line x1="74" y1="700" x2="1006" y2="700"/>
<line x1="74" y1="790" x2="1006" y2="790"/>
<line x1="74" y1="880" x2="1006" y2="880"/>
<line x1="74" y1="970" x2="1006" y2="970"/>
</g>
<path d="M303.6 273.0 L350.6 445.8 L365.6 474.4 L414.9 496.7 L409.2 517.2 L421.5 542.8 L422.3 542.6 L473.3 541.6 L555.4 665.0 L526.4 739.1 L527.0 773.7 L513.9 837.9 L523.6 885.6 L551.9 954.8 L581.9 984.4 L646.6 991.8 L660.7 992.7 L656.7 993.0 L660.7 992.7 L678.7 951.4 L709.0 902.2 L726.9 898.7 L731.4 900.6 L742.2 888.0 L741.4 887.6 L742.3 890.4 L742.4 894.9 L742.0 887.4 L755.5 885.8 L768.3 886.3 L772.3 869.1 L762.9 870.7 L766.2 867.8 L776.4 867.5 L671.1 793.3 L626.7 704.0 L636.9 626.5 L618.5 559.5 L553.5 512.5 L424.1 364.7 L319.6 298.9 L303.6 273.0" fill="none" stroke="#cfa06a" stroke-opacity="0.22" stroke-width="11" filter="url(#glow)" stroke-linejoin="round" stroke-linecap="round"/>
<path d="M303.6 273.0 L350.6 445.8 L365.6 474.4 L414.9 496.7 L409.2 517.2 L421.5 542.8 L422.3 542.6 L473.3 541.6 L555.4 665.0 L526.4 739.1 L527.0 773.7 L513.9 837.9 L523.6 885.6 L551.9 954.8 L581.9 984.4 L646.6 991.8 L660.7 992.7 L656.7 993.0 L660.7 992.7 L678.7 951.4 L709.0 902.2 L726.9 898.7 L731.4 900.6 L742.2 888.0 L741.4 887.6 L742.3 890.4 L742.4 894.9 L742.0 887.4 L755.5 885.8 L768.3 886.3 L772.3 869.1 L762.9 870.7 L766.2 867.8 L776.4 867.5 L671.1 793.3 L626.7 704.0 L636.9 626.5 L618.5 559.5 L553.5 512.5 L424.1 364.7 L319.6 298.9 L303.6 273.0" fill="none" stroke="url(#road)" stroke-width="3.6" stroke-linejoin="round" stroke-linecap="round"/>
<circle cx="303.6" cy="273.0" r="2.2" fill="#f2d9b0" opacity="0.8"/>
<circle cx="350.6" cy="445.8" r="2.2" fill="#f2d9b0" opacity="0.8"/>
<circle cx="365.6" cy="474.4" r="2.2" fill="#f2d9b0" opacity="0.8"/>
<circle cx="414.9" cy="496.7" r="2.2" fill="#f2d9b0" opacity="0.8"/>
<circle cx="409.2" cy="517.2" r="2.2" fill="#f2d9b0" opacity="0.8"/>
<circle cx="421.5" cy="542.8" r="2.2" fill="#f2d9b0" opacity="0.8"/>
<circle cx="422.3" cy="542.6" r="2.2" fill="#f2d9b0" opacity="0.8"/>
<circle cx="473.3" cy="541.6" r="2.2" fill="#f2d9b0" opacity="0.8"/>
<circle cx="555.4" cy="665.0" r="2.2" fill="#f2d9b0" opacity="0.8"/>
<circle cx="526.4" cy="739.1" r="2.2" fill="#f2d9b0" opacity="0.8"/>
<circle cx="527.0" cy="773.7" r="2.2" fill="#f2d9b0" opacity="0.8"/>
<circle cx="513.9" cy="837.9" r="2.2" fill="#f2d9b0" opacity="0.8"/>
<circle cx="523.6" cy="885.6" r="2.2" fill="#f2d9b0" opacity="0.8"/>
<circle cx="551.9" cy="954.8" r="2.2" fill="#f2d9b0" opacity="0.8"/>
<circle cx="581.9" cy="984.4" r="2.2" fill="#f2d9b0" opacity="0.8"/>
<circle cx="646.6" cy="991.8" r="2.2" fill="#f2d9b0" opacity="0.8"/>
<circle cx="660.7" cy="992.7" r="2.2" fill="#f2d9b0" opacity="0.8"/>
<circle cx="656.7" cy="993.0" r="2.2" fill="#f2d9b0" opacity="0.8"/>
<circle cx="660.7" cy="992.7" r="2.2" fill="#f2d9b0" opacity="0.8"/>
<circle cx="678.7" cy="951.4" r="2.2" fill="#f2d9b0" opacity="0.8"/>
<circle cx="709.0" cy="902.2" r="2.2" fill="#f2d9b0" opacity="0.8"/>
<circle cx="726.9" cy="898.7" r="2.2" fill="#f2d9b0" opacity="0.8"/>
<circle cx="731.4" cy="900.6" r="2.2" fill="#f2d9b0" opacity="0.8"/>
<circle cx="742.2" cy="888.0" r="2.2" fill="#f2d9b0" opacity="0.8"/>
<circle cx="741.4" cy="887.6" r="2.2" fill="#f2d9b0" opacity="0.8"/>
<circle cx="742.3" cy="890.4" r="2.2" fill="#f2d9b0" opacity="0.8"/>
<circle cx="742.4" cy="894.9" r="2.2" fill="#f2d9b0" opacity="0.8"/>
<circle cx="742.0" cy="887.4" r="2.2" fill="#f2d9b0" opacity="0.8"/>
<circle cx="755.5" cy="885.8" r="2.2" fill="#f2d9b0" opacity="0.8"/>
<circle cx="768.3" cy="886.3" r="2.2" fill="#f2d9b0" opacity="0.8"/>
<circle cx="772.3" cy="869.1" r="2.2" fill="#f2d9b0" opacity="0.8"/>
<circle cx="762.9" cy="870.7" r="2.2" fill="#f2d9b0" opacity="0.8"/>
<circle cx="766.2" cy="867.8" r="2.2" fill="#f2d9b0" opacity="0.8"/>
<circle cx="776.4" cy="867.5" r="2.2" fill="#f2d9b0" opacity="0.8"/>
<circle cx="671.1" cy="793.3" r="2.2" fill="#f2d9b0" opacity="0.8"/>
<circle cx="626.7" cy="704.0" r="2.2" fill="#f2d9b0" opacity="0.8"/>
<circle cx="636.9" cy="626.5" r="2.2" fill="#f2d9b0" opacity="0.8"/>
<circle cx="618.5" cy="559.5" r="2.2" fill="#f2d9b0" opacity="0.8"/>
<circle cx="553.5" cy="512.5" r="2.2" fill="#f2d9b0" opacity="0.8"/>
<circle cx="424.1" cy="364.7" r="2.2" fill="#f2d9b0" opacity="0.8"/>
<circle cx="319.6" cy="298.9" r="2.2" fill="#f2d9b0" opacity="0.8"/>
<circle cx="303.6" cy="273.0" r="2.2" fill="#f2d9b0" opacity="0.8"/>
<circle cx="303.6" cy="273.0" r="7.5" fill="none" stroke="#f0d09a" stroke-width="2.6"/>
<circle cx="303.6" cy="273.0" r="3" fill="#f0d09a"/>
<line x1="303.6" y1="273.0" x2="291.6" y2="273.0" stroke="#6b6256" stroke-width="1"/>
<text x="289.6" y="273.0" fill="#efe9df" font-size="16.5" font-weight="700" letter-spacing="1.3" text-anchor="end">ALMERE</text>
<text x="289.6" y="287.0" fill="#8c8578" font-size="10.5" letter-spacing="1.6" text-anchor="end">START / FINISH</text>
<circle cx="365.6" cy="474.4" r="3.4" fill="#f0d09a"/>
<line x1="365.6" y1="474.4" x2="353.6" y2="474.4" stroke="#6b6256" stroke-width="1"/>
<text x="351.6" y="474.4" fill="#efe9df" font-size="16.5" font-weight="700" letter-spacing="1.3" text-anchor="end">MONSCHAU</text>
<circle cx="421.5" cy="542.8" r="3.4" fill="#f0d09a"/>
<line x1="421.5" y1="542.8" x2="409.5" y2="542.8" stroke="#6b6256" stroke-width="1"/>
<text x="407.5" y="542.8" fill="#efe9df" font-size="16.5" font-weight="700" letter-spacing="1.3" text-anchor="end">BERNKASTEL</text>
<text x="407.5" y="556.8" fill="#8c8578" font-size="10.5" letter-spacing="1.6" text-anchor="end">MOSEL</text>
<circle cx="618.5" cy="559.5" r="3.4" fill="#f0d09a"/>
<line x1="618.5" y1="559.5" x2="630.5" y2="559.5" stroke="#6b6256" stroke-width="1"/>
<text x="632.5" y="559.5" fill="#efe9df" font-size="16.5" font-weight="700" letter-spacing="1.3" text-anchor="start">WÜRZBURG</text>
<circle cx="527.0" cy="773.7" r="3.4" fill="#f0d09a"/>
<line x1="527.0" y1="773.7" x2="515.0" y2="773.7" stroke="#6b6256" stroke-width="1"/>
<text x="513.0" y="773.7" fill="#efe9df" font-size="16.5" font-weight="700" letter-spacing="1.3" text-anchor="end">RHEINFALL</text>
<circle cx="671.1" cy="793.3" r="3.4" fill="#f0d09a"/>
<line x1="671.1" y1="793.3" x2="683.1" y2="793.3" stroke="#6b6256" stroke-width="1"/>
<text x="685.1" y="793.3" fill="#efe9df" font-size="16.5" font-weight="700" letter-spacing="1.3" text-anchor="start">REUTTE</text>
<text x="685.1" y="807.3" fill="#8c8578" font-size="10.5" letter-spacing="1.6" text-anchor="start">TIROL</text>
<circle cx="513.9" cy="837.9" r="3.4" fill="#f0d09a"/>
<line x1="513.9" y1="837.9" x2="501.9" y2="837.9" stroke="#6b6256" stroke-width="1"/>
<text x="499.9" y="837.9" fill="#efe9df" font-size="16.5" font-weight="700" letter-spacing="1.3" text-anchor="end">WEGGIS</text>
<text x="499.9" y="851.9" fill="#8c8578" font-size="10.5" letter-spacing="1.6" text-anchor="end">VIERWALDSTÄTTERSEE</text>
<circle cx="776.4" cy="867.5" r="3.4" fill="#f0d09a"/>
<line x1="776.4" y1="867.5" x2="788.4" y2="867.5" stroke="#6b6256" stroke-width="1"/>
<text x="790.4" y="867.5" fill="#efe9df" font-size="16.5" font-weight="700" letter-spacing="1.3" text-anchor="start">SAN CANDIDO</text>
<text x="790.4" y="881.5" fill="#8c8578" font-size="10.5" letter-spacing="1.6" text-anchor="start">INNICHEN</text>
<circle cx="523.6" cy="885.6" r="3.4" fill="#f0d09a"/>
<line x1="523.6" y1="885.6" x2="511.6" y2="885.6" stroke="#6b6256" stroke-width="1"/>
<text x="509.6" y="885.6" fill="#efe9df" font-size="16.5" font-weight="700" letter-spacing="1.3" text-anchor="end">GOTTHARD</text>
<text x="509.6" y="899.6" fill="#8c8578" font-size="10.5" letter-spacing="1.6" text-anchor="end">2106 M</text>
<circle cx="742.4" cy="894.9" r="3.4" fill="#f0d09a"/>
<line x1="742.4" y1="894.9" x2="754.4" y2="897.5" stroke="#6b6256" stroke-width="1"/>
<text x="756.4" y="897.5" fill="#efe9df" font-size="16.5" font-weight="700" letter-spacing="1.3" text-anchor="start">CANAZEI</text>
<text x="756.4" y="911.5" fill="#8c8578" font-size="10.5" letter-spacing="1.6" text-anchor="start">DOLOMITEN</text>
<circle cx="656.7" cy="993.0" r="3.4" fill="#f0d09a"/>
<line x1="656.7" y1="993.0" x2="644.7" y2="993.0" stroke="#6b6256" stroke-width="1"/>
<text x="642.7" y="993.0" fill="#efe9df" font-size="16.5" font-weight="700" letter-spacing="1.3" text-anchor="end">LAGO DI GARDA</text>
<rect width="1080" height="1350" fill="url(#vig)"/>
<text x="540" y="128" text-anchor="middle" fill="#f4efe6" font-size="66" font-weight="800" letter-spacing="7">ROADTRIP 2026</text>
<text x="540" y="167" text-anchor="middle" fill="#cfa06a" font-size="18" font-weight="600" letter-spacing="7.5">THE ROAD WAS THE DESTINATION</text>
<line x1="330" y1="192" x2="750" y2="192" stroke="#2c2f36" stroke-width="1"/>
<text x="540" y="216" text-anchor="middle" fill="#847d70" font-size="13" letter-spacing="6">4 — 13 AUGUST 2026</text>
<line x1="74" y1="1030" x2="1006" y2="1030" stroke="#23262c" stroke-width="1"/>
<text x="74" y="1052" fill="#cfa06a" font-size="14" font-weight="800" letter-spacing="5">ROADTRIP 2026 · STATISTICS</text>
<text x="74" y="1110" fill="#f4efe6" font-size="56" font-weight="800" letter-spacing="1">2 131</text>
<text x="74" y="1132" fill="#8c8578" font-size="12.5" font-weight="600" letter-spacing="2.5">KM · GPS STRAIGHT-LINE MIN.</text>
<text x="470" y="1110" fill="#f4efe6" font-size="56" font-weight="800" letter-spacing="1">39H 08M</text>
<text x="470" y="1132" fill="#8c8578" font-size="12.5" font-weight="600" letter-spacing="2.5">TOTAL DRIVING TIME</text>
<text x="74" y="1206" fill="#f4efe6" font-size="48" font-weight="800">41</text>
<text x="74" y="1228" fill="#8c8578" font-size="12.5" font-weight="600" letter-spacing="2.5">DRIVES</text>
<text x="255" y="1206" fill="#f4efe6" font-size="48" font-weight="800">10</text>
<text x="255" y="1228" fill="#8c8578" font-size="12.5" font-weight="600" letter-spacing="2.5">DAYS</text>
<text x="410" y="1206" fill="#f4efe6" font-size="48" font-weight="800">5</text>
<text x="410" y="1228" fill="#8c8578" font-size="12.5" font-weight="600" letter-spacing="2.5">COUNTRIES</text>
<text x="565" y="1206" fill="#f4efe6" font-size="48" font-weight="800">57</text>
<text x="565" y="1228" fill="#8c8578" font-size="12.5" font-weight="600" letter-spacing="2.5">AVG MIN / DRIVE</text>
<text x="74" y="1268" fill="#a99f8c" font-size="14.5" font-weight="700" letter-spacing="3">NETHERLANDS · GERMANY · SWITZERLAND · ITALY · AUSTRIA</text>
<text x="74" y="1292" fill="#5c574d" font-size="10.5" letter-spacing="1.2">* Straight-line GPS minimum between logged points — real road distance is higher (no routing engine available offline).</text>
</svg>